PathFileType	4	(X/Y/Z)	22_2_39_p0_0-208.trc
DataRate	CameraRate	NumFrames	NumMarkers	Units	OrigDataRate	OrigDataStartFrame	OrigNumFrames
60.0	60.0	7	27	m	60.0	104	209
Frame#	Time	RHip			RKnee			RAnkle			RBigToe			RSmallToe			RHeel			LHip			LKnee			LAnkle			LBigToe			LSmallToe			LHeel			Neck			Head			Nose			RShoulder			RElbow			RWrist			RThumb			RIndex			RPinky			LShoulder			LElbow			LWrist			LThumb			LIndex			LPinky			
		X1	Y1	Z1	X2	Y2	Z2	X3	Y3	Z3	X4	Y4	Z4	X5	Y5	Z5	X6	Y6	Z6	X7	Y7	Z7	X8	Y8	Z8	X9	Y9	Z9	X10	Y10	Z10	X11	Y11	Z11	X12	Y12	Z12	X13	Y13	Z13	X14	Y14	Z14	X15	Y15	Z15	X16	Y16	Z16	X17	Y17	Z17	X18	Y18	Z18	X19	Y19	Z19	X20	Y20	Z20	X21	Y21	Z21	X22	Y22	Z22	X23	Y23	Z23	X24	Y24	Z24	X25	Y25	Z25	X26	Y26	Z26	X27	Y27	Z27	
104	1.7333333333333334	0.25586867863091467	0.6030136656396647	0.9150836177165341	0.2694150025445011	0.7187214052924717	1.3536576582061282	0.277022329044805	0.9206259177501571	1.8257865546383885	0.2188837146846502	0.6486059565600513	1.8680437805782995	0.30044471729322747	0.7130248282125923	1.8721484277777238	0.29116617344311246	1.0026188518222807	1.8745467665298752	0.030327566871520217	0.6338117442360467	0.9315212488130865	0.06269260677390107	0.770130235640959	1.391315383287251	0.09339645571243131	0.888895515632485	1.8152566636392724	0.1158567676781652	0.7182560736056199	1.886643921781703	0.053765185821290265	0.7484853386980083	1.881552388408803	0.12218770682025708	1.029112065053569	1.890999119751678	0.10007232368590009	0.48478142274051844	0.376116500541888	0.08007434825868909	0.3364548619978519	0.1607522388930234	0.0700205640363305	0.3165891756754447	0.29584330877419857	0.2592855748204653	0.4628249636505544	0.4494528449906885	0.3603941832076693	0.5602950571848623	0.7032936977217666	0.24137893939713004	0.31725522841532816	0.7228233630298884	0.15269708974051976	0.2282035969270323	0.704847901289701	0.16249071591830544	0.20809097019633205	0.7196555739686415	0.18133035740975748	0.23002605352174102	0.7662585120068214	-0.0588621369067184	0.4781265829580114	0.45432487677905053	-0.10024610061457614	0.5834240827837816	0.6994058931920918	-0.10072354928359728	0.5335558577796238	0.9741342529891587	-0.07521797648189167	0.4941590587272298	1.077362856328796	-0.09444134477077368	0.49307401179502686	1.0957118619648363	-0.13377993665011073	0.5782663745199705	1.1125392508691199
105	1.75	0.2559760850973376	0.6022818737992551	0.9113460532235862	0.2613429811870896	0.7201469264789332	1.3542291155166448	0.2754477782974006	0.9176567597273054	1.8207820040893417	0.21932839289782152	0.6498605985161258	1.868164440059936	0.30077534628009694	0.7142209726869703	1.872334072452953	0.2913858494346274	1.003137412050803	1.874397860909134	0.0260095517985689	0.6201166431345293	0.931166123716709	0.06267520212498455	0.7700331977852182	1.3912377880754898	0.09251697112781429	0.8901185858050153	1.8202097455128285	0.11582844264476708	0.718368570291919	1.8867012897377788	0.05280994786237351	0.7498039746236774	1.8860041410292543	0.11988206971847543	1.0268549728966192	1.8970023803536	0.10007513024010893	0.4847120593359451	0.3760859557238307	0.08002301533324699	0.336352471214187	0.1607218483434324	0.06999985908209812	0.31654504578861475	0.2958520487482852	0.25915704863932304	0.46231811885311125	0.44593774584981777	0.36041853148185743	0.5601612432048219	0.7003206184894163	0.24144298162304978	0.317715648626529	0.7227611298215058	0.1552859854227062	0.21687836588785886	0.7062211290520298	0.16350615595378862	0.20928839246751882	0.7232588007732417	0.18894769581106102	0.23135623194657967	0.7685513845589289	-0.05933435746680267	0.4767135580757749	0.45083572883348466	-0.10032096624015843	0.5829509378448846	0.6992470982561984	-0.11252111009052741	0.5326628542649691	0.9746171190242047	-0.07205323081353184	0.507877638911729	1.082311201675372	-0.09777565870170701	0.5057201727776083	1.097372556862114	-0.13477395762076913	0.5755637296283022	1.108004224542261
106	1.7666666666666666	0.2558398579173336	0.6021838514053123	0.9113335330190049	0.26120590732634075	0.7199219820287861	1.354203017016344	0.27534326747270466	0.917432646081131	1.8207403446624768	0.2190258616081195	0.6484003092378579	1.8678731149056342	0.3005140386460864	0.712695231618298	1.8719865406790903	0.291216704158803	1.0027689113907203	1.8743802495629822	0.030315589760543816	0.6336650672844097	0.9318164267347288	0.06314550796013316	0.7686501940163055	1.387299245794699	0.09327431802137869	0.8884642516495299	1.8151988733904287	0.11259503257157553	0.7067919937711887	1.8861543432966548	0.054026124819392736	0.7481077528111602	1.8813594758864816	0.12205798838794876	1.0040357423815858	1.8895527630043474	0.10011934055716681	0.48469910189747367	0.3761228291902714	0.08005060291247817	0.33644063445524447	0.1607225591580751	0.06998893466316176	0.3165797553739895	0.2958356394498786	0.2591974268161058	0.4628619182726848	0.4494200156086215	0.35808971285245356	0.5732684883797406	0.6991354764354696	0.24316356276742768	0.30659099315085536	0.7224767691648145	0.1560354724960853	0.2182560287119659	0.7097967647001362	0.16364367611958905	0.20918302712048895	0.7233288067793591	0.19760725239647112	0.23985195384471727	0.7647416211718872	-0.05931493703863094	0.4765988455444244	0.4509426228324144	-0.10032111673270235	0.5827678273885685	0.6993776927121877	-0.11318030989015149	0.5331327940138678	0.9778652363376725	-0.0766003444708092	0.4965175768810648	1.0846539477424646	-0.10207078303841377	0.5068441793384432	1.0981256166903481	-0.13485234696598472	0.576880732743979	1.1084327220432093
107	1.7833333333333334	0.25599231109267406	0.6024672632473657	0.9113265063023545	0.2612164392957711	0.7200731368399812	1.3542404069139629	0.27542507285100726	0.9175200889142457	1.8207919905700962	0.21900144955650622	0.6489932340908977	1.8679730688547176	0.29604753024556923	0.7133238938171423	1.8721593781309664	0.2913738768301878	1.0027289582164907	1.8744061663437424	0.030274109269413835	0.6340492804476051	0.931692988053738	0.06319287453255189	0.768716088194126	1.387376938740785	0.0925611336804298	0.8901824612885625	1.8201831773881028	0.1110148368056649	0.704083109393551	1.8815742866457654	0.05297464610958269	0.7493251994930731	1.8857054712768793	0.1231613969353123	1.0065984961017989	1.8904405902105896	0.10002757459880118	0.48475574661684856	0.3760631397406644	0.08006609694723019	0.3363480963269796	0.16075573849166597	0.06996170203305943	0.31650142660362907	0.2958725988773476	0.2591880680948166	0.46243759376500176	0.44597671245697595	0.353122194698142	0.5616082841302398	0.7035552977196291	0.24332205673228258	0.3060386371601002	0.7193986378435583	0.15608984252753547	0.21782558659549053	0.709649545081671	0.16363867718184244	0.2089732791537957	0.7230244125536497	0.1973646309828186	0.24043792316453896	0.761912013275851	-0.05933916777632798	0.47676227979982416	0.45079359263663826	-0.10031671951838235	0.5830157066372227	0.6993659481439984	-0.11311717677844803	0.5332139973863819	0.9778805615936452	-0.07703408022360236	0.4953517765008577	1.0843489014221148	-0.10632095541910248	0.5070664994956698	1.0983479204678526	-0.1354733870045142	0.5785043309366524	1.111632296666325
108	1.8	0.2536832186790769	0.6171463486682048	0.9124793661932216	0.26170462037398007	0.7189605294623178	1.3495262753840023	0.2767674457817664	0.9201147508776305	1.8255778880064586	0.21865918406776977	0.6479314774199513	1.8677735568859748	0.29555415736950047	0.7118830022053085	1.8719758086796983	0.2915693624525075	1.0026430074661372	1.8744807479383763	0.029898713488759207	0.6344832246501264	0.9355740418625185	0.06318510790843551	0.7689765100642345	1.387345506264614	0.0939064854288481	0.893030667382524	1.82570994280476	0.10601104028235002	0.7017157915498667	1.8801476673127822	0.055969037188908555	0.7317677970253541	1.8790316556724607	0.12801505779117991	1.0377149434656536	1.901040488438535	0.10001418103641896	0.4849062812625617	0.37614274554146887	0.0800339536467565	0.3363696600057243	0.16074243310398914	0.06995364869963813	0.31652532615449464	0.2958656702888644	0.2553113683126924	0.4622944436935662	0.44628059594847536	0.3531577633021132	0.54609066942167	0.6993691126653452	0.24841364173568606	0.31725295677934134	0.7183683913849891	0.16143688064037928	0.2067491404123429	0.7030632622409999	0.16319642721614497	0.2077940143108056	0.716531812535366	0.20707815524593395	0.2592373122266287	0.7576459343537818	-0.059187082506011755	0.47763114061963396	0.4544277262281377	-0.10807727231540577	0.5842910916788517	0.7034156212783282	-0.12110190209761353	0.5463747067972088	0.9791292291680033	-0.07802433157222917	0.49424467414696654	1.08412314098364	-0.10976379627790968	0.5093371859119504	1.1028936564890681	-0.13572695988527392	0.5779239917548146	1.1115276066480475
109	1.8166666666666667	0.2609361655029366	0.614571380526881	0.9120072022181921	0.2633698317729669	0.7037507860268158	1.3427674745971128	0.2766400164839751	0.9199276788238856	1.8255526003760434	0.2177899513245636	0.6461189883610295	1.8678168224446363	0.2951804129336595	0.7110969881109587	1.8720135317783417	0.29151427632742977	1.002345564419497	1.874471569593593	0.02991798600706323	0.6337606933739379	0.9359240292735105	0.06319797059698193	0.7683728449074866	1.387427241454907	0.09398581840458642	0.8930869389786138	1.8256751626859702	0.10590393413146518	0.7017490808667077	1.8804242514971676	0.055936579508550355	0.7320053059756408	1.879262316132698	0.12737803954187712	1.0354018123689783	1.9002113643577516	0.10024961197819335	0.48506993003988114	0.3762679147500533	0.07996343632488279	0.3362880463066519	0.160735523568871	0.06991386020982279	0.31657651423075905	0.2958594196634349	0.2553993489155443	0.46251945644760867	0.446347223192687	0.3554727109935618	0.5469950836854809	0.6951898742925517	0.2486178135084151	0.3172628450793643	0.7177764452002221	0.16073637044400257	0.20371244919874731	0.6996912754169962	0.16304380450711276	0.20635282800974147	0.7101721759663596	0.2130427141562119	0.2689614485878181	0.7536753743512924	-0.059139052143294554	0.4779415087217587	0.4542442153538592	-0.10779126881807183	0.5843794738374645	0.6997041184695807	-0.121554565853919	0.5471902067516806	0.9755488067638285	-0.0780191408736305	0.49356685724602356	1.0838232110718002	-0.11390865591503221	0.5199826171725654	1.0999894387757687	-0.1365841432718985	0.5755084517383259	1.107245575102999
110	1.8333333333333333	0.25874190449804313	0.6300874136155452	0.9168210600927521	0.25979121007313244	0.7179364684252121	1.3496017486826473	0.2766935970820813	0.920121278702817	1.8255838697858784	0.2177893131277807	0.6472086146830416	1.8681015498427005	0.29523671894932185	0.7116037886809429	1.8720984428833953	0.2914976732415403	1.002302795468071	1.874492767965811	0.030179187468515167	0.6327550973092182	0.9328488327622857	0.06317714075906243	0.7678134449715647	1.3875076195697513	0.09468066066336508	0.8913215894882499	1.8206726133656637	0.10725325998238633	0.7044959112541733	1.8851050818623194	0.054023271694453256	0.7468108008639847	1.8807668055248596	0.12722318823655385	1.034715230309268	1.8999723261599633	0.10019931812445641	0.48510393561622933	0.376251927341547	0.0799820780074743	0.33648130111014535	0.1606829230242147	0.06633003902873798	0.31638463377346104	0.29613648834868334	0.2554846593376305	0.46299977854927615	0.44996242797812724	0.3600145011732855	0.5466985701613503	0.7021536422810116	0.2583384651765814	0.31460743046045486	0.7106337158595962	0.164620593276732	0.21232223138053583	0.688790930691633	0.16766962533973742	0.20142033027724118	0.699891953342381	0.21866102557046255	0.2751358655139638	0.7377038093300183	-0.059264208518065235	0.47741171717352604	0.4544947982767247	-0.10773933175570408	0.5834432983870029	0.6999809458104289	-0.12124422824355059	0.5469112453486417	0.9791159853225936	-0.07771667585704319	0.49192738940053954	1.0830347120508332	-0.11822729996869176	0.5199115953758028	1.0999168767915177	-0.13697404192403193	0.5759117199792136	1.1074919163160677
